<?xml version="1.0" encoding="UTF-8"?>
<svg width="1024px" height="1024px" viewBox="0 0 1024 1024" version="1.1" xmlns="http://www.w3.org/2000/svg" xmlns:xlink="http://www.w3.org/1999/xlink">
    <title>Logo</title>
    <g id="Page-1" stroke="none" stroke-width="1" fill="none" fill-rule="evenodd">
        <g id="Logo">
            <path d="M244.851037,-9.89227494e-15 L779.148963,9.89227494e-15 C864.289003,-5.74769662e-15 895.162839,8.86484586 926.288765,25.5111732 C957.414691,42.1575006 981.842499,66.5853094 998.488827,97.7112353 C1015.13515,128.837161 1024,159.710997 1024,244.851037 L1024,779.148963 C1024,864.289003 1015.13515,895.162839 998.488827,926.288765 C981.842499,957.414691 957.414691,981.842499 926.288765,998.488827 C895.162839,1015.13515 864.289003,1024 779.148963,1024 L244.851037,1024 C159.710997,1024 128.837161,1015.13515 97.7112353,998.488827 C66.5853094,981.842499 42.1575006,957.414691 25.5111732,926.288765 C8.86484586,895.162839 3.83179774e-15,864.289003 -6.59484996e-15,779.148963 L6.59484996e-15,244.851037 C-3.83179774e-15,159.710997 8.86484586,128.837161 25.5111732,97.7112353 C42.1575006,66.5853094 66.5853094,42.1575006 97.7112353,25.5111732 C128.837161,8.86484586 159.710997,5.74769662e-15 244.851037,-9.89227494e-15 Z" id="Rectangle" fill="#FCF7EB"></path>
            <path d="M469.224072,485.472551 L233.894672,799.38226 C231.222945,803.623492 230.553663,807.473018 231.898078,810.926335 C233.213688,814.370648 236.00964,816.365198 240.251727,816.90098 C244.503716,817.432259 248.199396,815.824913 251.377923,812.096951 L731.634867,171.511066 C734.308394,167.26308 734.717975,163.295592 732.850106,159.576635 C730.959733,155.868033 727.921634,154 723.64579,154 L241.8887,154 C237.623659,154 234.411825,155.873886 232.280654,159.604099 C230.142282,163.346019 230.682839,167.341421 233.894672,171.618222 L469.224072,485.472551" id="Fill-3" fill="#021E26"></path>
            <path d="M553.773884,538.53133 L789.103824,224.620987 C791.777363,220.377507 792.443497,216.528434 791.102227,213.073769 C789.783461,209.63036 786.988398,207.637613 782.748543,207.098229 C778.495186,206.569201 774.799941,208.177897 771.6223,211.903604 L291.366486,852.4903 C288.688446,856.73603 288.283364,860.702615 290.151241,864.421569 C292.041622,868.131518 295.075233,870 299.351095,870 L781.110213,870 C785.377073,870 788.58622,868.127016 790.71965,864.394555 C792.857581,860.653089 792.317472,856.65949 789.103824,852.382243 L553.773884,538.53133" id="Fill-4" fill="#021E26"></path>
        </g>
    </g>
</svg>